ffmpeg started on 2025-05-13 at 10:48:54
Report written to "D:\Convert\FFMetrics\reports\psnr_report-6.txt"
Log level: 32
Command line:
ffmpeg -hide_banner -nostdin -i "G:\\\xc0\xed\xe8\xec\xe5\\\xce\xed\xe3\xee\xe8\xed\xe3\xe8\\!_35_\xcb\xe5\xf2\xee_2024\\DreamCast-1\\\xdf \xf1\xf2\xe0\xeb \xf1\xe0\xec\xfb\xec \xf1\xe8\xeb\xfc\xed\xfb\xec \xf1 \xef\xf0\xee\xe2\xe0\xeb\xfc\xed\xfb\xec \xed\xe0\xe2\xfb\xea\xee\xec \xab\xed\xe5\xed\xee\xf0\xec\xe0\xeb\xfc\xed\xee\xe5 \xf1\xee\xf1\xf2\xee\xff\xed\xe8\xe5\xbb, \xff \xf0\xe0\xe7\xf0\xf3\xf8\xf3 \xe2\xf1\xb8\\[DC] Hazurewaku - 07_Telegram_HEVC.mkv" -i "G:\\\xc0\xed\xe8\xec\xe5\\\xce\xed\xe3\xee\xe8\xed\xe3\xe8\\!_35_\xcb\xe5\xf2\xee_2024\\DreamCast-1\\\xdf \xf1\xf2\xe0\xeb \xf1\xe0\xec\xfb\xec \xf1\xe8\xeb\xfc\xed\xfb\xec \xf1 \xef\xf0\xee\xe2\xe0\xeb\xfc\xed\xfb\xec \xed\xe0\xe2\xfb\xea\xee\xec \xab\xed\xe5\xed\xee\xf0\xec\xe0\xeb\xfc\xed\xee\xe5 \xf1\xee\xf1\xf2\xee\xff\xed\xe8\xe5\xbb, \xff \xf0\xe0\xe7\xf0\xf3\xf8\xf3 \xe2\xf1\xb8\\[DC] Hazurewaku - 07_Telegram.mp4" -lavfi "[0:v]settb=AVTB,setpts=PTS-STARTPTS,format=pix_fmts=yuv420p10,fps=24000/1001,scale=1920:1080:flags=bicubic[main];[1:v]settb=AVTB,setpts=PTS-STARTPTS,format=pix_fmts=yuv420p,fps=24000/1001,scale=1920:1080:flags=bicubic[ref];[main][ref]psnr=eof_action=endall:stats_file='D\\:/Convert/FFMetrics/logs/psnr_logfile-6.txt'" -f null -
Input #0, matroska,webm, from 'G:\Аниме\Онгоинги\!_35_Лето_2024\DreamCast-1\Я стал самым сильным с провальным навыком «ненормальное состояние», я разрушу всё\[DC] Hazurewaku - 07_Telegram_HEVC.mkv':
  Metadata:
    COMPATIBLE_BRANDS: isomiso2avc1mp41
    MAJOR_BRAND     : isom
    MINOR_VERSION   : 512
    ENCODER         : Lavf61.7.100
  Duration: 00:24:17.96, start: -0.021000, bitrate: 1095 kb/s
  Stream #0:0: Video: hevc (Main 10), yuv420p10le(tv, bt709, progressive), 1920x1080 [SAR 1:1 DAR 16:9], 23.98 fps, 23.98 tbr, 1k tbn (default)
      Metadata:
        HANDLER_NAME    : VideoHandler
        VENDOR_ID       : [0][0][0][0]
        ENCODER         : Lavc61.19.100 libx265
        BPS             : 899194
        DURATION        : 00:24:16.538708333
        NUMBER_OF_FRAMES: 34922
        NUMBER_OF_BYTES : 163713898
        _STATISTICS_WRITING_APP: mkvpropedit v66.0.0 ('Josie') 64-bit
        _STATISTICS_WRITING_DATE_UTC: 2025-05-11 15:32:48
        _STATISTICS_TAGS: BPS DURATION NUMBER_OF_FRAMES NUMBER_OF_BYTES
  Stream #0:1: Audio: aac (LC), 48000 Hz, stereo, fltp (default)
      Metadata:
        HANDLER_NAME    : SoundHandler
        VENDOR_ID       : [0][0][0][0]
        ENCODER         : Lavc61.19.100 aac
        BPS             : 192669
        DURATION        : 00:24:17.962000000
        NUMBER_OF_FRAMES: 68343
        NUMBER_OF_BYTES : 35113069
        _STATISTICS_WRITING_APP: mkvpropedit v66.0.0 ('Josie') 64-bit
        _STATISTICS_WRITING_DATE_UTC: 2025-05-11 15:32:48
        _STATISTICS_TAGS: BPS DURATION NUMBER_OF_FRAMES NUMBER_OF_BYTES
Input #1, mov,mp4,m4a,3gp,3g2,mj2, from 'G:\Аниме\Онгоинги\!_35_Лето_2024\DreamCast-1\Я стал самым сильным с провальным навыком «ненормальное состояние», я разрушу всё\[DC] Hazurewaku - 07_Telegram.mp4':
  Metadata:
    major_brand     : isom
    minor_version   : 512
    compatible_brands: isomiso2avc1mp41
    encoder         : Lavf60.16.100
  Duration: 00:24:17.91, start: 0.000000, bitrate: 3378 kb/s
  Stream #1:0[0x1](und): Video: h264 (High) (avc1 / 0x31637661), yuv420p(tv, bt709, progressive), 1920x1080 [SAR 1:1 DAR 16:9], 3233 kb/s, 23.98 fps, 23.98 tbr, 24k tbn (default)
      Metadata:
        handler_name    : VideoHandler
        vendor_id       : [0][0][0][0]
        encoder         : Lavc60.31.102 h264_qsv
  Stream #1:1[0x2](und): Audio: aac (HE-AACv2) (mp4a / 0x6134706D), 48000 Hz, stereo, fltp, 144 kb/s (default)
      Metadata:
        handler_name    : SoundHandler
        vendor_id       : [0][0][0][0]
Stream mapping:
  Stream #0:0 (hevc) -> settb:default
  Stream #1:0 (h264) -> settb:default
  psnr:default -> Stream #0:0 (wrapped_avframe)
  Stream #0:1 -> #0:1 (aac (native) -> pcm_s16le (native))
Output #0, null, to 'pipe:':
  Metadata:
    COMPATIBLE_BRANDS: isomiso2avc1mp41
    MAJOR_BRAND     : isom
    MINOR_VERSION   : 512
    encoder         : Lavf61.7.100
  Stream #0:0: Video: wrapped_avframe, yuv420p10le(tv, bt709, progressive), 1920x1080 [SAR 1:1 DAR 16:9], q=2-31, 200 kb/s, 23.98 fps, 23.98 tbn
      Metadata:
        encoder         : Lavc61.19.100 wrapped_avframe
  Stream #0:1: Audio: pcm_s16le, 48000 Hz, stereo, s16, 1536 kb/s (default)
      Metadata:
        HANDLER_NAME    : SoundHandler
        VENDOR_ID       : [0][0][0][0]
        _STATISTICS_TAGS: BPS DURATION NUMBER_OF_FRAMES NUMBER_OF_BYTES
        BPS             : 192669
        DURATION        : 00:24:17.962000000
        NUMBER_OF_FRAMES: 68343
        NUMBER_OF_BYTES : 35113069
        _STATISTICS_WRITING_APP: mkvpropedit v66.0.0 ('Josie') 64-bit
        _STATISTICS_WRITING_DATE_UTC: 2025-05-11 15:32:48
        encoder         : Lavc61.19.100 pcm_s16le
frame=  183 fps=0.0 q=-0.0 size=N/A time=00:00:07.63 bitrate=N/A speed=14.7x    frame=  421 fps=410 q=-0.0 size=N/A time=00:00:17.55 bitrate=N/A speed=17.1x    frame=  674 fps=435 q=-0.0 size=N/A time=00:00:28.11 bitrate=N/A speed=18.1x    frame=  931 fps=453 q=-0.0 size=N/A time=00:00:38.83 bitrate=N/A speed=18.9x    frame= 1163 fps=451 q=-0.0 size=N/A time=00:00:48.50 bitrate=N/A speed=18.8x    frame= 1434 fps=463 q=-0.0 size=N/A time=00:00:59.80 bitrate=N/A speed=19.3x    frame= 1626 fps=451 q=-0.0 size=N/A time=00:01:07.81 bitrate=N/A speed=18.8x    frame= 1887 fps=457 q=-0.0 size=N/A time=00:01:18.70 bitrate=N/A speed=19.1x    frame= 2156 fps=465 q=-0.0 size=N/A time=00:01:29.92 bitrate=N/A speed=19.4x    frame= 2414 fps=468 q=-0.0 size=N/A time=00:01:40.68 bitrate=N/A speed=19.5x    frame= 2667 fps=470 q=-0.0 size=N/A time=00:01:51.23 bitrate=N/A speed=19.6x    frame= 2916 fps=471 q=-0.0 size=N/A time=00:02:01.62 bitrate=N/A speed=19.6x    frame= 3054 fps=456 q=-0.0 size=N/A time=00:02:07.37 bitrate=N/A speed=  19x    frame= 3260 fps=452 q=-0.0 size=N/A time=00:02:15.96 bitrate=N/A speed=18.8x    frame= 3464 fps=448 q=-0.0 size=N/A time=00:02:24.47 bitrate=N/A speed=18.7x    frame= 3678 fps=446 q=-0.0 size=N/A time=00:02:33.40 bitrate=N/A speed=18.6x    frame= 3855 fps=440 q=-0.0 size=N/A time=00:02:40.78 bitrate=N/A speed=18.3x    frame= 4022 fps=434 q=-0.0 size=N/A time=00:02:47.75 bitrate=N/A speed=18.1x    frame= 4195 fps=428 q=-0.0 size=N/A time=00:02:54.96 bitrate=N/A speed=17.9x    frame= 4390 fps=426 q=-0.0 size=N/A time=00:03:03.09 bitrate=N/A speed=17.7x    frame= 4588 fps=424 q=-0.0 size=N/A time=00:03:11.35 bitrate=N/A speed=17.7x    frame= 4791 fps=422 q=-0.0 size=N/A time=00:03:19.82 bitrate=N/A speed=17.6x    frame= 4974 fps=419 q=-0.0 size=N/A time=00:03:27.45 bitrate=N/A speed=17.5x    frame= 5194 fps=420 q=-0.0 size=N/A time=00:03:36.63 bitrate=N/A speed=17.5x    frame= 5463 fps=424 q=-0.0 size=N/A time=00:03:47.85 bitrate=N/A speed=17.7x    frame= 5722 fps=427 q=-0.0 size=N/A time=00:03:58.65 bitrate=N/A speed=17.8x    frame= 5994 fps=431 q=-0.0 size=N/A time=00:04:09.99 bitrate=N/A speed=  18x    frame= 6263 fps=434 q=-0.0 size=N/A time=00:04:21.21 bitrate=N/A speed=18.1x    frame= 6544 fps=438 q=-0.0 size=N/A time=00:04:32.93 bitrate=N/A speed=18.3x    frame= 6835 fps=442 q=-0.0 size=N/A time=00:04:45.07 bitrate=N/A speed=18.4x    frame= 7080 fps=443 q=-0.0 size=N/A time=00:04:55.29 bitrate=N/A speed=18.5x    frame= 7359 fps=446 q=-0.0 size=N/A time=00:05:06.93 bitrate=N/A speed=18.6x    frame= 7612 fps=447 q=-0.0 size=N/A time=00:05:17.48 bitrate=N/A speed=18.7x    frame= 7888 fps=450 q=-0.0 size=N/A time=00:05:28.99 bitrate=N/A speed=18.8x    frame= 8164 fps=452 q=-0.0 size=N/A time=00:05:40.50 bitrate=N/A speed=18.9x    frame= 8408 fps=453 q=-0.0 size=N/A time=00:05:50.68 bitrate=N/A speed=18.9x    frame= 8652 fps=453 q=-0.0 size=N/A time=00:06:00.86 bitrate=N/A speed=18.9x    frame= 8895 fps=454 q=-0.0 size=N/A time=00:06:10.99 bitrate=N/A speed=18.9x    frame= 9130 fps=454 q=-0.0 size=N/A time=00:06:20.79 bitrate=N/A speed=18.9x    frame= 9369 fps=454 q=-0.0 size=N/A time=00:06:30.76 bitrate=N/A speed=  19x    frame= 9596 fps=454 q=-0.0 size=N/A time=00:06:40.23 bitrate=N/A speed=18.9x    frame= 9815 fps=453 q=-0.0 size=N/A time=00:06:49.36 bitrate=N/A speed=18.9x    frame=10088 fps=455 q=-0.0 size=N/A time=00:07:00.75 bitrate=N/A speed=  19x    frame=10349 fps=456 q=-0.0 size=N/A time=00:07:11.63 bitrate=N/A speed=  19x    frame=10596 fps=457 q=-0.0 size=N/A time=00:07:21.94 bitrate=N/A speed=  19x    frame=10847 fps=457 q=-0.0 size=N/A time=00:07:32.41 bitrate=N/A speed=19.1x    frame=11103 fps=458 q=-0.0 size=N/A time=00:07:43.08 bitrate=N/A speed=19.1x    frame=11360 fps=459 q=-0.0 size=N/A time=00:07:53.80 bitrate=N/A speed=19.1x    frame=11604 fps=459 q=-0.0 size=N/A time=00:08:03.98 bitrate=N/A speed=19.2x    frame=11871 fps=460 q=-0.0 size=N/A time=00:08:15.11 bitrate=N/A speed=19.2x    frame=12125 fps=461 q=-0.0 size=N/A time=00:08:25.71 bitrate=N/A speed=19.2x    frame=12375 fps=462 q=-0.0 size=N/A time=00:08:36.14 bitrate=N/A speed=19.3x    frame=12661 fps=463 q=-0.0 size=N/A time=00:08:48.06 bitrate=N/A speed=19.3x    frame=12938 fps=464 q=-0.0 size=N/A time=00:08:59.62 bitrate=N/A speed=19.4x    frame=13214 fps=466 q=-0.0 size=N/A time=00:09:11.13 bitrate=N/A speed=19.4x    frame=13494 fps=467 q=-0.0 size=N/A time=00:09:22.81 bitrate=N/A speed=19.5x    frame=13750 fps=468 q=-0.0 size=N/A time=00:09:33.48 bitrate=N/A speed=19.5x    frame=13986 fps=467 q=-0.0 size=N/A time=00:09:43.33 bitrate=N/A speed=19.5x    frame=14253 fps=468 q=-0.0 size=N/A time=00:09:54.46 bitrate=N/A speed=19.5x    frame=14530 fps=469 q=-0.0 size=N/A time=00:10:06.02 bitrate=N/A speed=19.6x    frame=14808 fps=470 q=-0.0 size=N/A time=00:10:17.61 bitrate=N/A speed=19.6x    frame=15060 fps=471 q=-0.0 size=N/A time=00:10:28.12 bitrate=N/A speed=19.6x    frame=15327 fps=472 q=-0.0 size=N/A time=00:10:39.26 bitrate=N/A speed=19.7x    frame=15622 fps=473 q=-0.0 size=N/A time=00:10:51.56 bitrate=N/A speed=19.7x    frame=15869 fps=473 q=-0.0 size=N/A time=00:11:01.86 bitrate=N/A speed=19.7x    frame=16134 fps=474 q=-0.0 size=N/A time=00:11:12.92 bitrate=N/A speed=19.8x    frame=16388 fps=474 q=-0.0 size=N/A time=00:11:23.55 bitrate=N/A speed=19.8x    frame=16655 fps=475 q=-0.0 size=N/A time=00:11:34.65 bitrate=N/A speed=19.8x    frame=16915 fps=475 q=-0.0 size=N/A time=00:11:45.49 bitrate=N/A speed=19.8x    frame=17175 fps=476 q=-0.0 size=N/A time=00:11:56.34 bitrate=N/A speed=19.8x    frame=17426 fps=476 q=-0.0 size=N/A time=00:12:06.80 bitrate=N/A speed=19.8x    frame=17704 fps=477 q=-0.0 size=N/A time=00:12:18.40 bitrate=N/A speed=19.9x    frame=17972 fps=477 q=-0.0 size=N/A time=00:12:29.58 bitrate=N/A speed=19.9x    frame=18188 fps=477 q=-0.0 size=N/A time=00:12:38.59 bitrate=N/A speed=19.9x    frame=18436 fps=477 q=-0.0 size=N/A time=00:12:48.93 bitrate=N/A speed=19.9x    frame=18710 fps=477 q=-0.0 size=N/A time=00:13:00.36 bitrate=N/A speed=19.9x    frame=18988 fps=478 q=-0.0 size=N/A time=00:13:11.95 bitrate=N/A speed=19.9x    frame=19263 fps=479 q=-0.0 size=N/A time=00:13:23.42 bitrate=N/A speed=  20x    frame=19525 fps=479 q=-0.0 size=N/A time=00:13:34.35 bitrate=N/A speed=  20x    frame=19773 fps=479 q=-0.0 size=N/A time=00:13:44.69 bitrate=N/A speed=  20x    frame=20003 fps=479 q=-0.0 size=N/A time=00:13:54.29 bitrate=N/A speed=  20x    frame=20245 fps=479 q=-0.0 size=N/A time=00:14:04.42 bitrate=N/A speed=  20x    frame=20495 fps=479 q=-0.0 size=N/A time=00:14:14.81 bitrate=N/A speed=  20x    frame=20746 fps=479 q=-0.0 size=N/A time=00:14:25.28 bitrate=N/A speed=  20x    frame=21030 fps=480 q=-0.0 size=N/A time=00:14:37.12 bitrate=N/A speed=  20x    frame=21306 fps=480 q=-0.0 size=N/A time=00:14:48.63 bitrate=N/A speed=  20x    frame=21584 fps=481 q=-0.0 size=N/A time=00:15:00.23 bitrate=N/A speed=20.1x    frame=21832 fps=481 q=-0.0 size=N/A time=00:15:10.57 bitrate=N/A speed=20.1x    frame=22086 fps=481 q=-0.0 size=N/A time=00:15:21.17 bitrate=N/A speed=20.1x    frame=22336 fps=481 q=-0.0 size=N/A time=00:15:31.59 bitrate=N/A speed=20.1x    frame=22609 fps=482 q=-0.0 size=N/A time=00:15:42.98 bitrate=N/A speed=20.1x    frame=22860 fps=482 q=-0.0 size=N/A time=00:15:53.45 bitrate=N/A speed=20.1x    frame=23120 fps=482 q=-0.0 size=N/A time=00:16:04.29 bitrate=N/A speed=20.1x    frame=23383 fps=482 q=-0.0 size=N/A time=00:16:15.26 bitrate=N/A speed=20.1x    frame=23660 fps=483 q=-0.0 size=N/A time=00:16:26.81 bitrate=N/A speed=20.1x    frame=23931 fps=483 q=-0.0 size=N/A time=00:16:38.12 bitrate=N/A speed=20.2x    frame=24214 fps=484 q=-0.0 size=N/A time=00:16:49.92 bitrate=N/A speed=20.2x    frame=24468 fps=484 q=-0.0 size=N/A time=00:17:00.51 bitrate=N/A speed=20.2x    frame=24718 fps=484 q=-0.0 size=N/A time=00:17:10.94 bitrate=N/A speed=20.2x    frame=24992 fps=485 q=-0.0 size=N/A time=00:17:22.37 bitrate=N/A speed=20.2x    frame=25244 fps=485 q=-0.0 size=N/A time=00:17:32.88 bitrate=N/A speed=20.2x    frame=25518 fps=485 q=-0.0 size=N/A time=00:17:44.31 bitrate=N/A speed=20.2x    frame=25782 fps=485 q=-0.0 size=N/A time=00:17:55.32 bitrate=N/A speed=20.2x    frame=26043 fps=486 q=-0.0 size=N/A time=00:18:06.21 bitrate=N/A speed=20.3x    frame=26282 fps=485 q=-0.0 size=N/A time=00:18:16.17 bitrate=N/A speed=20.2x    frame=26523 fps=485 q=-0.0 size=N/A time=00:18:26.27 bitrate=N/A speed=20.2x    frame=26786 fps=485 q=-0.0 size=N/A time=00:18:37.19 bitrate=N/A speed=20.2x    frame=27035 fps=485 q=-0.0 size=N/A time=00:18:47.58 bitrate=N/A speed=20.2x    frame=27307 fps=486 q=-0.0 size=N/A time=00:18:58.92 bitrate=N/A speed=20.3x    frame=27566 fps=486 q=-0.0 size=N/A time=00:19:09.73 bitrate=N/A speed=20.3x    frame=27828 fps=486 q=-0.0 size=N/A time=00:19:20.65 bitrate=N/A speed=20.3x    frame=28099 fps=486 q=-0.0 size=N/A time=00:19:31.96 bitrate=N/A speed=20.3x    frame=28364 fps=487 q=-0.0 size=N/A time=00:19:43.01 bitrate=N/A speed=20.3x    frame=28636 fps=487 q=-0.0 size=N/A time=00:19:54.35 bitrate=N/A speed=20.3x    frame=28907 fps=487 q=-0.0 size=N/A time=00:20:05.66 bitrate=N/A speed=20.3x    frame=29187 fps=488 q=-0.0 size=N/A time=00:20:17.34 bitrate=N/A speed=20.3x    frame=29454 fps=488 q=-0.0 size=N/A time=00:20:28.47 bitrate=N/A speed=20.4x    frame=29704 fps=488 q=-0.0 size=N/A time=00:20:38.90 bitrate=N/A speed=20.3x    frame=29971 fps=488 q=-0.0 size=N/A time=00:20:50.04 bitrate=N/A speed=20.4x    frame=30187 fps=488 q=-0.0 size=N/A time=00:20:59.04 bitrate=N/A speed=20.3x    frame=30435 fps=488 q=-0.0 size=N/A time=00:21:09.39 bitrate=N/A speed=20.3x    frame=30635 fps=487 q=-0.0 size=N/A time=00:21:17.73 bitrate=N/A speed=20.3x    frame=30820 fps=486 q=-0.0 size=N/A time=00:21:25.45 bitrate=N/A speed=20.3x    frame=31071 fps=486 q=-0.0 size=N/A time=00:21:35.91 bitrate=N/A speed=20.3x    frame=31316 fps=486 q=-0.0 size=N/A time=00:21:46.13 bitrate=N/A speed=20.3x    frame=31578 fps=486 q=-0.0 size=N/A time=00:21:57.06 bitrate=N/A speed=20.3x    frame=31853 fps=486 q=-0.0 size=N/A time=00:22:08.53 bitrate=N/A speed=20.3x    frame=32103 fps=486 q=-0.0 size=N/A time=00:22:18.96 bitrate=N/A speed=20.3x    frame=32344 fps=486 q=-0.0 size=N/A time=00:22:29.01 bitrate=N/A speed=20.3x    frame=32587 fps=486 q=-0.0 size=N/A time=00:22:39.14 bitrate=N/A speed=20.3x    frame=32812 fps=485 q=-0.0 size=N/A time=00:22:48.53 bitrate=N/A speed=20.2x    frame=33000 fps=485 q=-0.0 size=N/A time=00:22:56.37 bitrate=N/A speed=20.2x    frame=33219 fps=484 q=-0.0 size=N/A time=00:23:05.50 bitrate=N/A speed=20.2x    frame=33435 fps=484 q=-0.0 size=N/A time=00:23:14.51 bitrate=N/A speed=20.2x    frame=33622 fps=483 q=-0.0 size=N/A time=00:23:22.31 bitrate=N/A speed=20.1x    frame=33783 fps=481 q=-0.0 size=N/A time=00:23:29.03 bitrate=N/A speed=20.1x    frame=33974 fps=481 q=-0.0 size=N/A time=00:23:36.99 bitrate=N/A speed=  20x    frame=34167 fps=480 q=-0.0 size=N/A time=00:23:45.04 bitrate=N/A speed=  20x    frame=34342 fps=479 q=-0.0 size=N/A time=00:23:52.34 bitrate=N/A speed=  20x    frame=34510 fps=478 q=-0.0 size=N/A time=00:23:59.35 bitrate=N/A speed=19.9x    frame=34698 fps=477 q=-0.0 size=N/A time=00:24:07.19 bitrate=N/A speed=19.9x    [Parsed_psnr_10 @ 00000233764ab000] PSNR y:48.627624 u:50.750405 v:51.801821 average:49.337821 min:39.719078 max:inf
[out#0/null @ 0000023376466240] video:15006KiB audio:273372KiB subtitle:0KiB other streams:0KiB global headers:0KiB muxing overhead: unknown
frame=34922 fps=477 q=-0.0 Lsize=N/A time=00:24:16.53 bitrate=N/A speed=19.9x    
